<?xml version="1.0" standalone="no"?>
<!DOCTYPE svg PUBLIC "-//W3C//DTD SVG 20010904//EN"
 "http://www.w3.org/TR/2001/REC-SVG-20010904/DTD/svg10.dtd">
<svg version="1.0" xmlns="http://www.w3.org/2000/svg"
 width="250.000000pt" height="250.000000pt" viewBox="0 0 250.000000 250.000000"
 preserveAspectRatio="xMidYMid meet">

<g transform="translate(0.000000,250.000000) scale(0.100000,-0.100000)"
fill="#000000" stroke="none">
<path d="M1033 1412 c-18 -11 -38 -288 -24 -325 10 -25 36 -45 46 -36 2 3 6
86 9 187 5 185 3 196 -31 174z"/>
<path d="M1741 1411 c-10 -7 -11 -13 -1 -31 7 -14 10 -38 6 -62 -6 -34 -4 -39
11 -36 29 5 55 62 47 102 -5 28 -11 36 -28 36 -11 0 -27 -4 -35 -9z"/>
<path d="M1920 1401 c-5 -11 -10 -42 -10 -70 0 -41 -3 -49 -15 -45 -30 12 -63
-5 -74 -38 -19 -64 -17 -160 5 -182 21 -21 61 -20 73 2 9 16 11 15 26 -6 34
-48 40 -23 40 171 1 172 -1 187 -17 187 -9 0 -22 -9 -28 -19z m-18 -178 c5
-23 -22 -133 -33 -133 -21 0 -16 105 7 142 9 14 22 9 26 -9z"/>
<path d="M1541 1379 c-7 -20 -9 -71 -5 -133 8 -156 10 -166 41 -166 22 0 25 3
21 30 -5 35 2 38 27 10 18 -20 49 -25 79 -14 24 9 19 20 -13 34 -16 6 -37 20
-47 31 -16 18 -15 21 25 64 38 42 45 65 20 65 -6 0 -31 -17 -56 -37 l-46 -38
7 93 7 92 -25 0 c-18 0 -27 -8 -35 -31z"/>
<path d="M542 1367 c-6 -7 -14 -58 -18 -113 -10 -145 10 -194 81 -194 17 0 29
8 37 25 12 27 28 24 28 -5 0 -20 22 -32 45 -24 11 5 13 13 7 33 -6 23 -6 105
1 245 1 22 -3 41 -9 43 -23 8 -41 -26 -59 -108 -22 -102 -41 -149 -61 -149
-13 0 -14 17 -8 130 7 126 6 130 -13 130 -11 0 -25 -6 -31 -13z"/>
<path d="M1151 1264 c-23 -30 -36 -99 -26 -143 14 -64 104 -83 134 -29 24 42
5 49 -42 16 -14 -11 -19 -10 -27 2 -18 28 -11 48 19 55 43 9 69 83 39 113 -22
22 -75 14 -97 -14z m69 -22 c0 -23 -26 -59 -36 -50 -8 9 15 68 27 68 5 0 9 -8
9 -18z"/>
<path d="M1336 1258 c-49 -78 -12 -204 54 -183 10 3 22 15 25 26 8 24 17 24
33 -1 12 -20 52 -28 52 -11 0 5 -6 24 -14 42 -8 19 -17 57 -21 84 -9 58 -16
65 -72 65 -33 0 -46 -5 -57 -22z m74 -47 c0 -35 -19 -91 -31 -91 -10 0 -12 63
-3 98 9 32 34 28 34 -7z"/>
<path d="M780 1181 c0 -66 4 -92 15 -101 20 -17 45 -5 45 20 0 12 8 35 17 53
l17 32 7 -42 c11 -61 26 -85 52 -81 14 2 20 9 18 18 -2 8 -7 51 -10 94 -5 61
-10 81 -24 90 -16 9 -24 5 -53 -29 l-34 -40 0 38 c0 33 -3 37 -25 37 -25 0
-25 -1 -25 -89z"/>
</g>
</svg>
